<svg width="101" height="48" viewBox="0 0 101 48" fill="none" xmlns="http://www.w3.org/2000/svg">
<path d="M4.5998 0V47.2431H0V0.630748L4.5998 0Z" fill="#92BAC2"/>
<path d="M23.0073 13.3088C24.9281 13.3088 26.4614 14.1708 27.6071 15.8949C28.7528 17.6189 29.3257 19.9317 29.3257 22.8331V47.2431H24.8776V23.59C24.8776 21.4455 24.6248 19.9317 24.1193 19.0486C23.6476 18.1235 22.9231 17.661 21.9458 17.661C20.025 17.661 18.239 19.7214 16.5878 23.8423V47.2431H12.1396V14.0026H15.9812L16.3351 18.9855C17.2112 17.1353 18.1716 15.7267 19.2163 14.7595C20.2609 13.7924 21.5246 13.3088 23.0073 13.3088Z" fill="black"/>
<path d="M53.9636 0.630748V47.2431H50.0209L49.7176 43.0171C48.1338 46.339 46.1119 48 43.6519 48C40.8887 48 38.7657 46.4862 37.283 43.4586C35.8339 40.389 35.1094 36.1629 35.1094 30.7806C35.1094 27.2904 35.4801 24.2208 36.2215 21.5716C36.9628 18.9225 37.9906 16.883 39.3049 15.4534C40.6191 14.0237 42.1187 13.3088 43.8036 13.3088C46.1287 13.3088 48.0327 14.5913 49.5154 17.1564V0L53.9636 0.630748ZM44.5112 43.5848C46.432 43.5848 48.1001 42.0079 49.5154 38.8541V22.0131C48.1338 19.1537 46.5331 17.724 44.7134 17.724C43.1633 17.724 41.9502 18.7753 41.074 20.8778C40.2316 22.9803 39.8103 26.2392 39.8103 30.6544C39.8103 39.2746 41.3773 43.5848 44.5112 43.5848Z" fill="black"/>
<path d="M78.5908 29.6452C78.5908 30.5703 78.5571 31.5375 78.4897 32.5466H64.5386C64.6734 36.5414 65.1957 39.3587 66.1056 40.9987C67.0491 42.6386 68.3802 43.4586 70.0988 43.4586C71.2108 43.4586 72.2049 43.2484 73.0811 42.8279C73.9572 42.3653 74.8671 41.6505 75.8107 40.6833L77.782 44.0263C75.5579 46.6754 72.9463 48 69.9472 48C66.7795 48 64.3196 46.5493 62.5673 43.6478C60.815 40.7043 59.9388 36.4783 59.9388 30.9698C59.9388 25.4612 60.7644 21.1511 62.4156 18.0394C64.1005 14.8857 66.4594 13.3088 69.4922 13.3088C72.424 13.3088 74.6649 14.6965 76.215 17.4717C77.7988 20.205 78.5908 24.2628 78.5908 29.6452ZM74.2942 28.0053C74.2942 24.389 73.9067 21.7608 73.1316 20.1209C72.3566 18.4809 71.1435 17.661 69.4922 17.661C68.0095 17.661 66.8469 18.502 66.0045 20.184C65.162 21.8239 64.6734 24.5782 64.5386 28.4468H74.2942V28.0053Z" fill="black"/>
<path d="M93.1136 29.456L100.645 47.2431H95.8432L90.4346 32.9251L85.026 47.2431H80.4263L87.9578 29.7083L81.235 14.0026H85.9359L90.5357 26.4284L95.1355 14.0026H99.6848L93.1136 29.456Z" fill="black"/>
</svg>
